<?xml version="1.0" standalone="no"?>
<!DOCTYPE svg PUBLIC "-//W3C//DTD SVG 20010904//EN"
 "http://www.w3.org/TR/2001/REC-SVG-20010904/DTD/svg10.dtd">
<svg version="1.0" xmlns="http://www.w3.org/2000/svg"
 width="800.000000pt" height="800.000000pt" viewBox="0 0 800.000000 800.000000"
 preserveAspectRatio="xMidYMid meet">
<metadata>
Created by potrace 1.14, written by Peter Selinger 2001-2017
</metadata>
<g transform="translate(0.000000,800.000000) scale(0.100000,-0.100000)"
fill="#000000" stroke="none">
<path d="M4060 7970 c0 -10 5 -22 10 -25 6 -4 17 -21 25 -38 8 -18 28 -57 45
-87 18 -30 54 -94 81 -141 27 -48 49 -91 49 -98 0 -6 4 -11 9 -11 5 0 11 -8
14 -17 4 -10 22 -45 42 -78 19 -33 39 -69 45 -80 5 -11 14 -27 19 -35 6 -8 33
-55 61 -105 28 -49 55 -97 60 -105 6 -8 13 -21 17 -29 3 -8 35 -63 70 -123 35
-60 63 -111 63 -114 0 -3 14 -25 30 -49 17 -24 30 -46 30 -50 0 -3 32 -59 70
-124 129 -218 200 -406 225 -596 9 -66 6 -239 -5 -296 -6 -30 -13 -67 -16 -84
-3 -16 -10 -35 -16 -42 -6 -7 -8 -13 -4 -13 3 0 -1 -17 -10 -37 -9 -21 -17
-42 -19 -48 -13 -44 -18 -55 -24 -55 -4 0 -8 -6 -8 -12 0 -20 -61 -116 -119
-189 -56 -71 -124 -138 -189 -188 -22 -17 -44 -34 -50 -39 -78 -60 -285 -174
-447 -246 -80 -34 -76 -56 7 -50 171 13 229 22 335 50 99 26 320 120 320 135
0 5 5 9 11 9 27 0 151 101 239 196 107 115 204 312 224 454 3 25 8 56 11 70
12 60 6 282 -10 353 -3 12 -7 33 -9 47 -9 49 -38 156 -51 185 -7 17 -16 41
-20 55 -10 38 -62 149 -116 250 -13 24 -145 224 -162 245 -4 5 -53 75 -107
155 -55 80 -103 150 -108 155 -4 6 -64 91 -132 190 -68 99 -128 185 -132 190
-23 29 -148 207 -148 210 0 2 -22 33 -48 69 -27 35 -69 94 -93 130 -47 70 -69
88 -69 56z"/>
<path d="M3384 7152 c-8 -5 17 -59 73 -162 46 -85 114 -211 150 -279 36 -69
79 -147 95 -174 15 -26 35 -63 43 -80 9 -18 21 -41 28 -52 6 -11 30 -52 52
-90 162 -286 209 -396 230 -540 6 -43 6 -161 1 -210 -10 -86 -77 -268 -112
-303 -8 -7 -14 -17 -14 -21 0 -4 -8 -17 -17 -28 -10 -12 -36 -42 -58 -68 -34
-41 -145 -135 -201 -173 -50 -32 -115 -72 -119 -72 -4 0 -64 -35 -133 -77 -38
-23 -13 -40 55 -37 177 8 249 22 365 69 205 83 367 242 437 429 11 31 19 56
16 56 -2 0 0 12 6 27 34 89 28 279 -12 433 -27 98 -25 92 -34 115 -54 140 -93
208 -239 415 -60 85 -125 178 -144 205 -44 62 -442 607 -451 617 -3 4 -11 4
-17 0z"/>
<path d="M2705 6529 c-5 -14 170 -374 290 -594 131 -241 160 -312 171 -420 3
-27 6 -55 8 -61 13 -36 -54 -256 -89 -294 -8 -9 -15 -20 -15 -25 0 -17 -75
-98 -143 -156 -85 -71 -78 -65 -145 -108 -30 -19 -61 -41 -69 -49 -14 -14 -13
-17 2 -28 32 -23 218 -11 309 21 117 40 150 61 240 151 56 56 116 152 116 186
0 8 4 18 9 23 19 20 28 163 17 260 -16 139 -101 330 -209 470 -4 5 -28 37 -52
70 -25 33 -48 65 -52 70 -5 6 -47 62 -95 126 -48 64 -93 122 -100 130 -10 11
-82 105 -175 228 -10 15 -12 14 -18 0z"/>
<path d="M1680 5782 c-94 -28 -167 -101 -198 -196 l-22 -66 0 -2581 c0 -2373
1 -2587 17 -2650 9 -38 20 -69 25 -69 4 0 8 -6 8 -14 0 -22 111 -132 155 -153
92 -45 19 -44 2365 -41 l2235 3 66 32 c54 27 156 114 155 133 0 3 8 16 16 30
9 14 24 50 32 80 15 50 16 307 14 2660 l-3 2605 -26 55 c-33 71 -70 114 -126
147 -38 22 -60 27 -126 29 -74 3 -85 1 -139 -28 -32 -17 -74 -50 -93 -74 -70
-86 -65 130 -65 -2567 l0 -2440 -44 -43 c-40 -41 -47 -44 -97 -44 -77 -1
-3540 -1 -3624 0 -65 0 -73 3 -107 33 -20 17 -41 42 -48 55 -8 17 -12 122 -12
360 0 185 1 342 2 347 1 6 2 15 1 20 -3 15 -3 608 -1 620 1 6 2 15 1 20 -3 15
-3 608 -1 620 1 6 2 15 1 20 -3 14 -3 448 -1 460 1 6 2 15 1 20 -3 14 -3 448
-1 460 1 6 2 15 1 20 -3 14 -3 448 -1 460 1 6 1 15 0 20 -2 14 -3 178 0 190 1
6 2 12 0 15 -1 4 -1 123 1 190 0 8 -2 31 -4 50 -2 19 0 45 4 56 4 12 5 25 2
28 -5 5 -8 387 -3 411 1 6 2 12 1 15 -3 7 -3 433 -1 445 1 6 1 12 0 15 -1 3
-4 18 -6 34 -8 45 -68 131 -116 163 -68 46 -170 66 -238 45z"/>
<path d="M2135 2619 c0 -1895 0 -1911 20 -1922 15 -8 495 -12 1853 -12 1765 0
1834 1 1850 18 15 17 17 164 17 1910 1 1041 -1 1898 -3 1905 -3 9 -386 12
-1871 12 l-1867 0 1 -1911z m2410 1177 c17 -4 38 -9 47 -12 10 -3 30 -7 44
-10 59 -11 189 -69 257 -114 171 -115 279 -272 332 -484 19 -78 22 -112 20
-236 -1 -80 -5 -160 -9 -179 -17 -100 -77 -296 -110 -356 -5 -11 -11 -22 -11
-25 -5 -31 -122 -224 -193 -319 -80 -106 -220 -256 -296 -316 -14 -11 -40 -33
-58 -48 -18 -16 -64 -49 -103 -75 -38 -26 -72 -49 -75 -52 -6 -6 -52 -31 -155
-85 -77 -40 -249 -109 -297 -119 -13 -3 -39 -10 -58 -16 -36 -11 -57 -15 -125
-25 -23 -3 -52 -8 -65 -10 -34 -7 -259 -7 -290 0 -14 3 -41 8 -60 11 -86 14
-300 94 -300 113 0 3 -13 12 -29 19 -40 18 -171 145 -211 205 -50 75 -120 241
-110 259 1 2 -4 16 -10 32 -12 31 -23 131 -23 206 -2 256 100 561 271 813 30
45 58 84 62 87 3 3 13 16 22 29 43 61 178 201 273 282 22 19 49 42 60 52 46
41 236 162 336 211 101 51 286 122 346 132 15 3 36 7 45 10 25 8 57 13 112 19
28 3 52 8 54 9 5 6 275 -2 307 -8z"/>
<path d="M4439 3266 c-2 -3 -30 -7 -62 -11 -221 -23 -405 -188 -506 -452 -23
-60 -57 -188 -66 -251 -11 -78 -43 -189 -69 -240 -14 -28 -47 -73 -73 -101
-39 -40 -206 -173 -344 -273 -13 -9 -47 -34 -76 -55 -28 -21 -77 -56 -107 -78
-58 -41 -59 -52 -4 -49 127 7 317 52 468 111 8 3 20 7 25 9 54 15 193 87 239
124 73 58 186 199 186 233 0 7 4 17 10 23 5 5 20 52 34 104 24 91 31 119 42
185 14 73 56 220 65 223 5 2 9 8 9 14 0 25 72 149 105 180 54 51 56 52 115 81
99 48 270 81 414 81 44 -1 47 1 30 14 -72 55 -264 119 -362 121 -29 0 -57 3
-61 6 -5 2 -10 3 -12 1z"/>
</g>
</svg>
